<svg width="16" height="16" viewBox="0 0 16 16" fill="none" xmlns="http://www.w3.org/2000/svg">
<path d="M10.625 0C11.1773 0 11.625 0.447715 11.625 1C11.625 1.55228 11.1773 2 10.625 2H2.75C2.55109 2 2.36038 2.07907 2.21973 2.21973C2.07907 2.36038 2 2.55109 2 2.75V13.25L2.01465 13.3975C2.04352 13.5414 2.11435 13.6749 2.21973 13.7803C2.36038 13.9209 2.55109 14 2.75 14H13.25C13.4489 14 13.6396 13.9209 13.7803 13.7803C13.9209 13.6396 14 13.4489 14 13.25V8C14 7.44772 14.4477 7 15 7C15.5523 7 16 7.44772 16 8V13.25C16 13.9793 15.7101 14.6786 15.1943 15.1943C14.6786 15.7101 13.9793 16 13.25 16H2.75C2.02065 16 1.32139 15.7101 0.805664 15.1943C0.289939 14.6786 0 13.9793 0 13.25V2.75C0 2.02065 0.289939 1.32139 0.805664 0.805664C1.32139 0.289939 2.02065 0 2.75 0H10.625ZM14.293 2.04297C14.6835 1.65244 15.3165 1.65244 15.707 2.04297C16.0976 2.43349 16.0976 3.06651 15.707 3.45703L8.70703 10.457C8.31651 10.8476 7.68349 10.8476 7.29297 10.457L4.66797 7.83203C4.27744 7.44151 4.27744 6.80849 4.66797 6.41797C5.05849 6.02744 5.69151 6.02744 6.08203 6.41797L8 8.33594L14.293 2.04297Z" fill="#F8F8F8"/>
</svg>
