<svg width="152" height="75" viewBox="0 0 152 75" fill="none" xmlns="http://www.w3.org/2000/svg">
<g clip-path="url(#clip0_361_1335)">
<path d="M65.8495 0.000244141L32.366 74.9228L113.391 0.000244141H65.8495Z" fill="#8EEB21"/>
<path d="M18.631 29.6372V48.7256H14.2704V33.4387H4.35646V48.7256H-0.00415039V29.6372H18.631Z" fill="#F8F8F8"/>
<path d="M36.278 40.1825H30.8479C28.1329 40.1825 26.4873 40.9999 26.4873 42.8393C26.4873 44.556 28.0094 45.5779 30.5188 45.5779C33.8097 45.5779 36.278 43.9431 36.278 41.2042V40.1825ZM40.6386 36.7081V48.7251H36.278V46.9675C34.838 48.4799 32.5344 49.2564 29.8194 49.2564C25.212 49.2564 22.127 47.0493 22.127 42.8393C22.127 38.1386 26.4052 36.7081 30.8888 36.7081H36.278C36.278 34.0922 34.0153 33.1112 31.2179 33.1112C28.9967 33.1112 27.022 33.8061 26.3229 35.5637H21.6743C22.7849 31.2718 26.7752 29.1054 31.177 29.1054C36.7715 29.1054 40.6386 31.8443 40.6386 36.7081Z" fill="#F8F8F8"/>
<path d="M63.8039 29.6372V48.7256H59.4433V41.0004H49.2002V48.7256H44.8396V29.6372H49.2002V37.199H59.4433V29.6372H63.8039Z" fill="#F8F8F8"/>
<path d="M72.7632 29.6372L70.4249 39.6402L81.2786 29.6372H87.2433L76.7535 39.202L87.2433 48.7256H81.2786L72.7632 41.3275V48.7256H68.4026V29.6372H72.7632Z" fill="#F8F8F8"/>
<path d="M102.878 43.0029C102.878 41.6542 101.932 40.9184 100.328 40.9184H93.4993V45.0875H100.328C101.932 45.0875 102.878 44.3516 102.878 43.0029ZM102.673 35.3184C102.673 34.0106 101.727 33.2748 100.122 33.2748H93.4993V37.4033H100.122C101.727 37.4033 102.673 36.6674 102.673 35.3184ZM107.239 43.289C107.239 46.2322 105.223 48.7253 100.904 48.7253H89.1387V29.637H100.698C105.018 29.637 107.033 32.0894 107.033 35.0732C107.033 36.5858 106.581 38.0573 105.059 39.1199C106.663 40.1416 107.239 41.7358 107.239 43.289Z" fill="#F8F8F8"/>
<path d="M113.987 37.2396H124.559C124.148 34.7053 122.173 32.9887 119.417 32.9887C116.62 32.9887 114.357 34.7053 113.987 37.2396ZM124.148 43.1663H128.879C127.48 46.9268 123.819 49.2566 119.623 49.2566C113.74 49.2566 109.38 45.0057 109.38 39.1605C109.38 33.4382 113.534 29.1057 119.417 29.1057C125.135 29.1057 129.167 33.4382 129.167 38.9972C129.167 39.5694 129.167 40.1416 129.084 40.7138H113.905C114.398 43.4115 116.743 45.2508 119.623 45.2508C121.556 45.2508 123.202 44.5971 124.148 43.1663Z" fill="#F8F8F8"/>
<path d="M147.585 39.61C147.585 36.2992 145.076 33.9286 141.826 33.9286C138.535 33.9286 136.067 36.2992 136.067 39.61C136.067 42.8799 138.535 45.2509 141.826 45.2509C145.076 45.2509 147.585 42.8799 147.585 39.61ZM151.946 39.61C151.946 45.0872 147.544 49.2564 141.826 49.2564C135.491 49.2564 131.706 44.9238 131.706 37.6073C131.706 28.6966 134.215 24.405 140.221 23.7919L143.759 23.4239C145.652 23.2196 146.804 22.7699 147.133 21.3803H151.493C151.164 24.8545 149.23 26.6938 145.446 27.1027L140.715 27.5933C137.465 27.9203 135.984 30.1271 135.779 32.6205C136.848 31.19 138.987 29.9228 142.237 29.9228C147.708 29.9228 151.946 34.1331 151.946 39.61Z" fill="#F8F8F8"/>
</g>
<defs>
<clipPath id="clip0_361_1335">
<rect width="152" height="75" fill="white"/>
</clipPath>
</defs>
</svg>
