<svg width="1600" height="284" viewBox="0 0 1600 284" fill="none" xmlns="http://www.w3.org/2000/svg">
<path d="M196.224 87.0827V288.401H150.308V127.175H45.9164V288.401H0V87.0827H196.224Z" fill="#8EEB21"/>
<path d="M196.224 87.0827V288.401H150.308V127.175H45.9164V288.401H0V87.0827H196.224Z" fill="url(#paint0_radial_361_1326)"/>
<path d="M382.044 198.299H324.867C296.279 198.299 278.951 206.92 278.951 226.319C278.951 244.424 294.978 255.202 321.402 255.202C356.054 255.202 382.044 237.96 382.044 209.074V198.299ZM427.961 161.655V288.394H382.044V269.858C366.882 285.808 342.626 293.998 314.037 293.998C265.522 293.998 233.037 270.721 233.037 226.319C233.037 176.743 278.086 161.655 325.298 161.655H382.044C382.044 134.067 358.219 123.72 328.764 123.72C305.375 123.72 284.581 131.049 277.219 149.585H228.271C239.966 104.321 281.983 81.4727 328.333 81.4727C387.241 81.4727 427.961 110.358 427.961 161.655Z" fill="#8EEB21"/>
<path d="M382.044 198.299H324.867C296.279 198.299 278.951 206.92 278.951 226.319C278.951 244.424 294.978 255.202 321.402 255.202C356.054 255.202 382.044 237.96 382.044 209.074V198.299ZM427.961 161.655V288.394H382.044V269.858C366.882 285.808 342.626 293.998 314.037 293.998C265.522 293.998 233.037 270.721 233.037 226.319C233.037 176.743 278.086 161.655 325.298 161.655H382.044C382.044 134.067 358.219 123.72 328.764 123.72C305.375 123.72 284.581 131.049 277.219 149.585H228.271C239.966 104.321 281.983 81.4727 328.333 81.4727C387.241 81.4727 427.961 110.358 427.961 161.655Z" fill="url(#paint1_radial_361_1326)"/>
<path d="M671.885 87.0827V288.401H625.968V206.926H518.111V288.401H472.195V87.0827H518.111V166.834H625.968V87.0827H671.885Z" fill="#8EEB21"/>
<path d="M671.885 87.0827V288.401H625.968V206.926H518.111V288.401H472.195V87.0827H518.111V166.834H625.968V87.0827H671.885Z" fill="url(#paint2_radial_361_1326)"/>
<path d="M766.226 87.0827L741.605 192.58L855.891 87.0827H918.699L808.243 187.959L918.699 288.401H855.891L766.226 210.375V288.401H720.31V87.0827H766.226Z" fill="#8EEB21"/>
<path d="M766.226 87.0827L741.605 192.58L855.891 87.0827H918.699L808.243 187.959L918.699 288.401H855.891L766.226 210.375V288.401H720.31V87.0827H766.226Z" fill="url(#paint3_radial_361_1326)"/>
<path d="M1083.33 228.046C1083.33 213.822 1073.37 206.061 1056.48 206.061H984.572V250.031H1056.48C1073.37 250.031 1083.33 242.271 1083.33 228.046ZM1081.17 147.001C1081.17 133.208 1071.2 125.447 1054.31 125.447H984.572V168.989H1054.31C1071.2 168.989 1081.17 161.228 1081.17 147.001ZM1129.25 231.064C1129.25 262.104 1108.02 288.398 1062.54 288.398H938.655V87.0803H1060.37C1105.86 87.0803 1127.08 112.946 1127.08 144.415C1127.08 160.368 1122.32 175.887 1106.29 187.093C1123.18 197.869 1129.25 214.682 1129.25 231.064Z" fill="#8EEB21"/>
<path d="M1083.33 228.046C1083.33 213.822 1073.37 206.061 1056.48 206.061H984.572V250.031H1056.48C1073.37 250.031 1083.33 242.271 1083.33 228.046ZM1081.17 147.001C1081.17 133.208 1071.2 125.447 1054.31 125.447H984.572V168.989H1054.31C1071.2 168.989 1081.17 161.228 1081.17 147.001ZM1129.25 231.064C1129.25 262.104 1108.02 288.398 1062.54 288.398H938.655V87.0803H1060.37C1105.86 87.0803 1127.08 112.946 1127.08 144.415C1127.08 160.368 1122.32 175.887 1106.29 187.093C1123.18 197.869 1129.25 214.682 1129.25 231.064Z" fill="url(#paint4_radial_361_1326)"/>
<path d="M1200.3 167.261H1311.63C1307.3 140.533 1286.5 122.428 1257.48 122.428C1228.03 122.428 1204.2 140.533 1200.3 167.261ZM1307.3 229.768H1357.11C1342.38 269.429 1303.83 294 1259.65 294C1197.71 294 1151.79 249.167 1151.79 187.52C1151.79 127.169 1195.54 81.4752 1257.48 81.4752C1317.69 81.4752 1360.14 127.169 1360.14 185.797C1360.14 191.832 1360.14 197.867 1359.28 203.902H1199.44C1204.64 232.354 1229.33 251.753 1259.65 251.753C1280.01 251.753 1297.33 244.858 1307.3 229.768Z" fill="#8EEB21"/>
<path d="M1200.3 167.261H1311.63C1307.3 140.533 1286.5 122.428 1257.48 122.428C1228.03 122.428 1204.2 140.533 1200.3 167.261ZM1307.3 229.768H1357.11C1342.38 269.429 1303.83 294 1259.65 294C1197.71 294 1151.79 249.167 1151.79 187.52C1151.79 127.169 1195.54 81.4752 1257.48 81.4752C1317.69 81.4752 1360.14 127.169 1360.14 185.797C1360.14 191.832 1360.14 197.867 1359.28 203.902H1199.44C1204.64 232.354 1229.33 251.753 1259.65 251.753C1280.01 251.753 1297.33 244.858 1307.3 229.768Z" fill="url(#paint5_radial_361_1326)"/>
<path d="M1554.08 192.263C1554.08 157.345 1527.66 132.342 1493.44 132.342C1458.79 132.342 1432.8 157.345 1432.8 192.263C1432.8 226.749 1458.79 251.755 1493.44 251.755C1527.66 251.755 1554.08 226.749 1554.08 192.263ZM1600 192.263C1600 250.029 1553.65 293.999 1493.44 293.999C1426.73 293.999 1386.88 248.306 1386.88 171.141C1386.88 77.1624 1413.31 31.9004 1476.55 25.4341L1513.8 21.5537C1533.73 19.3991 1545.85 14.6559 1549.32 0H1595.23C1591.77 36.641 1571.41 56.0401 1531.56 60.352L1481.75 65.5267C1447.52 68.9756 1431.93 92.2497 1429.77 118.547C1441.03 103.459 1463.55 90.0951 1497.77 90.0951C1555.38 90.0951 1600 134.5 1600 192.263Z" fill="#8EEB21"/>
<path d="M1554.08 192.263C1554.08 157.345 1527.66 132.342 1493.44 132.342C1458.79 132.342 1432.8 157.345 1432.8 192.263C1432.8 226.749 1458.79 251.755 1493.44 251.755C1527.66 251.755 1554.08 226.749 1554.08 192.263ZM1600 192.263C1600 250.029 1553.65 293.999 1493.44 293.999C1426.73 293.999 1386.88 248.306 1386.88 171.141C1386.88 77.1624 1413.31 31.9004 1476.55 25.4341L1513.8 21.5537C1533.73 19.3991 1545.85 14.6559 1549.32 0H1595.23C1591.77 36.641 1571.41 56.0401 1531.56 60.352L1481.75 65.5267C1447.52 68.9756 1431.93 92.2497 1429.77 118.547C1441.03 103.459 1463.55 90.0951 1497.77 90.0951C1555.38 90.0951 1600 134.5 1600 192.263Z" fill="url(#paint6_radial_361_1326)"/>
<defs>
<radialGradient id="paint0_radial_361_1326" cx="0" cy="0" r="1" gradientUnits="userSpaceOnUse" gradientTransform="translate(901.5 147) rotate(65.501) scale(731.894 1044.95)">
<stop stop-color="#0F1C19" stop-opacity="0"/>
<stop offset="0.722999" stop-color="#0F1C19"/>
</radialGradient>
<radialGradient id="paint1_radial_361_1326" cx="0" cy="0" r="1" gradientUnits="userSpaceOnUse" gradientTransform="translate(901.5 147) rotate(65.501) scale(731.894 1044.95)">
<stop stop-color="#0F1C19" stop-opacity="0"/>
<stop offset="0.722999" stop-color="#0F1C19"/>
</radialGradient>
<radialGradient id="paint2_radial_361_1326" cx="0" cy="0" r="1" gradientUnits="userSpaceOnUse" gradientTransform="translate(901.5 147) rotate(65.501) scale(731.894 1044.95)">
<stop stop-color="#0F1C19" stop-opacity="0"/>
<stop offset="0.722999" stop-color="#0F1C19"/>
</radialGradient>
<radialGradient id="paint3_radial_361_1326" cx="0" cy="0" r="1" gradientUnits="userSpaceOnUse" gradientTransform="translate(901.5 147) rotate(65.501) scale(731.894 1044.95)">
<stop stop-color="#0F1C19" stop-opacity="0"/>
<stop offset="0.722999" stop-color="#0F1C19"/>
</radialGradient>
<radialGradient id="paint4_radial_361_1326" cx="0" cy="0" r="1" gradientUnits="userSpaceOnUse" gradientTransform="translate(901.5 147) rotate(65.501) scale(731.894 1044.95)">
<stop stop-color="#0F1C19" stop-opacity="0"/>
<stop offset="0.722999" stop-color="#0F1C19"/>
</radialGradient>
<radialGradient id="paint5_radial_361_1326" cx="0" cy="0" r="1" gradientUnits="userSpaceOnUse" gradientTransform="translate(901.5 147) rotate(65.501) scale(731.894 1044.95)">
<stop stop-color="#0F1C19" stop-opacity="0"/>
<stop offset="0.722999" stop-color="#0F1C19"/>
</radialGradient>
<radialGradient id="paint6_radial_361_1326" cx="0" cy="0" r="1" gradientUnits="userSpaceOnUse" gradientTransform="translate(901.5 147) rotate(65.501) scale(731.894 1044.95)">
<stop stop-color="#0F1C19" stop-opacity="0"/>
<stop offset="0.722999" stop-color="#0F1C19"/>
</radialGradient>
</defs>
</svg>
