<svg width="72" height="72" viewBox="0 0 72 72" fill="none" xmlns="http://www.w3.org/2000/svg">
<rect width="72" height="72" rx="36" fill="black"/>
<path d="M40.8246 35.9201C40.8246 38.5623 38.6646 40.7041 36 40.7041C33.3355 40.7041 31.1755 38.5623 31.1755 35.9201C31.1755 33.278 33.3355 31.1361 36 31.1361C38.6646 31.1361 40.8246 33.278 40.8246 35.9201Z" fill="white"/>
<path d="M50.1707 16.784C50.1707 19.4262 48.0106 21.568 45.3461 21.568C42.6816 21.568 40.5215 19.4262 40.5215 16.784C40.5215 14.1419 42.6816 12 45.3461 12C48.0106 12 50.1707 14.1419 50.1707 16.784Z" fill="white"/>
<path d="M31.5237 16.784C31.5237 19.4262 29.3637 21.568 26.6992 21.568C24.0347 21.568 21.8746 19.4262 21.8746 16.784C21.8746 14.1419 24.0347 12 26.6992 12C29.3637 12 31.5237 14.1419 31.5237 16.784Z" fill="white"/>
<path d="M55.9733 48.6775C55.9733 51.3197 53.8133 53.4615 51.1488 53.4615C48.4843 53.4615 46.3242 51.3197 46.3242 48.6775C46.3242 46.0354 48.4843 43.8935 51.1488 43.8935C53.8133 43.8935 55.9733 46.0354 55.9733 48.6775Z" fill="white"/>
<path d="M40.8246 56.216C40.8246 58.8581 38.6646 61 36 61C33.3355 61 31.1755 58.8581 31.1755 56.216C31.1755 53.5738 33.3355 51.432 36 51.432C38.6646 51.432 40.8246 53.5738 40.8246 56.216Z" fill="white"/>
<path d="M25.6199 48.6775C25.6199 51.3197 23.4598 53.4615 20.7953 53.4615C18.1308 53.4615 15.9707 51.3197 15.9707 48.6775C15.9707 46.0354 18.1308 43.8935 20.7953 43.8935C23.4598 43.8935 25.6199 46.0354 25.6199 48.6775Z" fill="white"/>
<path d="M61 31.3365C61 33.9786 58.84 36.1205 56.1754 36.1205C53.5109 36.1205 51.3509 33.9786 51.3509 31.3365C51.3509 28.6943 53.5109 26.5525 56.1754 26.5525C58.84 26.5525 61 28.6943 61 31.3365Z" fill="white"/>
<path d="M20.6491 31.3365C20.6491 33.9786 18.4891 36.1205 15.8246 36.1205C13.16 36.1205 11 33.9786 11 31.3365C11 28.6943 13.16 26.5525 15.8246 26.5525C18.4891 26.5525 20.6491 28.6943 20.6491 31.3365Z" fill="white"/>
</svg>
