<svg width="72" height="72" viewBox="0 0 72 72" fill="none" xmlns="http://www.w3.org/2000/svg">
<rect width="72" height="72" rx="36" fill="white"/>
<g clip-path="url(#clip0_512_412)">
<mask id="mask0_512_412" style="mask-type:luminance" maskUnits="userSpaceOnUse" x="9" y="22" width="54" height="29">
<path d="M63 22H9V51H63V22Z" fill="white"/>
</mask>
<g mask="url(#mask0_512_412)">
<path d="M35.0391 40.93C34.8743 42.8223 34.5319 46.7834 34.4382 47.7863C34.3639 48.5874 34.5254 49.4168 35.0036 49.9025C35.267 50.1356 35.5789 50.3103 35.9179 50.4148C36.2569 50.5194 36.6151 50.5511 36.9678 50.508C37.6365 50.38 38.2592 50.0831 38.7738 49.647C40.9609 47.8998 46.4401 43.1787 51.0729 38.8391C51.3313 38.8013 51.593 38.7665 51.8547 38.7381C55.0337 38.3976 58.1125 38.8896 58.6391 40.4222C58.9847 41.4346 58.6391 42.0559 58.316 43.021C58.862 42.5195 60.2544 41.2643 60.8198 40.5989C61.7147 39.5172 63.1006 37.833 62.9585 35.8682C62.8163 33.9035 61.3205 31.9008 58.1416 29.4377C58.2902 29.1223 58.3677 27.7567 56.7847 26.9462C52.8174 24.912 43.9267 22.7548 37.4976 22.4395C37.6239 22.7592 37.7318 23.0856 37.8207 23.4171C30.8566 23.1376 23.8811 23.3294 16.9442 23.9911C15.0123 24.174 9 24.9625 9 24.9625L22.5688 30.5762C21.1182 30.8916 19.6612 31.2322 18.1686 31.6043C16.676 31.9764 12.1919 33.4777 12.1919 33.4777L17.6226 34.613C20.3267 35.1807 27.9608 36.7545 31.1914 37.4798C30.7617 38.7665 27.9608 47.6696 27.9608 47.6696C27.9608 47.6696 31.5823 43.9513 32.7162 42.9389C33.5272 42.2073 34.2702 41.5608 35.0294 40.9458" fill="#231F20"/>
<path d="M38.1083 28.0401H38.1729C37.9823 27.6869 37.824 27.3242 37.6818 27.0593C40.2857 26.7439 46.3206 27.0593 48.7274 28.5479C51.1343 30.0364 53.3247 30.5474 54.9723 30.1941C54.79 30.5374 54.5396 30.8418 54.2357 31.0898C53.5523 31.2134 52.8528 31.2273 52.1648 31.1308C49.9615 33.0577 48.8728 32.4964 46.7697 33.5844C43.2397 35.3484 39.8604 37.3859 36.6641 39.6775C36.6351 40.0338 36.3734 43.2917 36.3411 43.6733L41.5812 41.8315L40.5215 40.961L44.9928 39.9708C45.7164 38.8354 51.257 33.6632 52.1357 33.0325C52.4299 32.9674 52.7276 32.9189 53.0274 32.8874C54.1846 31.8589 55.4672 30.9733 56.846 30.2509C56.8697 30.1786 56.8881 30.1049 56.901 30.0302C56.9818 29.5665 56.9462 28.8916 56.3162 28.5731C45.6551 23.1801 25.9481 24.921 15.3418 25.7536L25.3569 30.0112C30.1479 29.0619 34.5771 28.4312 38.1083 28.0401Z" fill="#C3AC90"/>
<path d="M40.5255 40.9549L41.5852 41.8253L36.345 43.6671C36.345 43.6671 36.0639 46.9502 35.9928 47.7229C35.8927 48.7731 36.8134 49.0979 37.6858 48.4009C39.6241 46.8493 44.1471 43.0395 48.3825 39.2109L40.5255 40.9549Z" fill="#8D7659"/>
<path d="M49.8697 31.7554C47.8796 32.0708 46.9234 30.7084 46.7489 29.2766C46.0317 29.163 45.3209 29.0968 44.6813 29.04C44.649 30.8345 45.9154 32.875 48.9199 32.3483C50.07 32.1434 50.5772 31.8153 50.8228 31.4337C50.5264 31.605 50.196 31.7126 49.8535 31.7491" fill="#F7F7F7"/>
<path d="M56.8478 30.251C52.6932 32.3357 49.3494 36.5586 48.1929 38.0976C51.6206 37.019 58.7054 36.4356 59.8458 39.7912C61.7326 37.4227 63.6322 35.3695 56.8478 30.251ZM54.8254 33.0169C55.0362 32.6064 55.3971 32.2879 55.8366 32.1244C56.5177 32.394 57.1242 32.8165 57.607 33.3575L54.8254 33.0169Z" fill="#F0EAD8"/>
<path d="M45.3118 32.8119C43.8903 32.0361 43.4347 30.5254 43.5898 29.1094C41.3283 29.2765 29.0874 30.2132 18.0288 33.0579C21.5826 33.6602 33.1936 36.2779 33.1936 36.2779C33.1936 36.2779 31.9239 39.9299 31.2552 42.2511C35.4873 38.6495 38.2818 36.5271 45.2988 32.8119M32.1436 32.897L40.8211 31.9509L36.1335 35.2939L36.2336 33.9315L32.1436 32.897Z" fill="#ED1B2F"/>
</g>
</g>
<defs>
<clipPath id="clip0_512_412">
<rect width="54" height="29" fill="white" transform="translate(9 22)"/>
</clipPath>
</defs>
</svg>
