<svg width="72" height="72" viewBox="0 0 72 72" fill="none" xmlns="http://www.w3.org/2000/svg">
<rect width="72" height="72" rx="36" fill="#191B4C"/>
<path d="M47.0667 41.2788C47.77 41.3165 48.4286 40.817 48.4485 40.0891C48.4659 39.4466 47.9912 38.9245 47.35 38.9169H45.7968C45.6601 38.9169 45.5482 39.0299 45.5482 39.1679V41.0278C45.5482 41.1659 45.6601 41.2788 45.7968 41.2788H47.0667Z" fill="white"/>
<path d="M36.9817 41.1207C36.9096 40.8848 36.579 40.8848 36.507 41.1207L35.7465 43.6332C35.6968 43.7938 35.8161 43.957 35.9851 43.957H37.5085C37.675 43.957 37.7943 43.7938 37.7471 43.6332C37.4936 42.7949 37.2401 41.9591 36.9841 41.1207H36.9817Z" fill="white"/>
<path d="M47.6656 43.46H45.7968C45.6601 43.46 45.5482 43.5729 45.5482 43.711V45.8721C45.5482 46.0101 45.6601 46.1231 45.7968 46.1231H47.6656C48.446 46.1683 49.0624 45.5709 49.0624 44.7903C49.0624 44.0097 48.446 43.4148 47.6656 43.4575V43.46Z" fill="white"/>
<path d="M45.7993 29.266C46.3087 29.266 46.8182 29.266 47.3277 29.266C48.2472 29.266 49.0499 28.5557 49.0499 27.6044C49.0499 26.6581 48.2547 25.8926 47.3302 25.8675C46.9275 25.8574 46.1894 25.8424 45.8017 25.8349C45.6626 25.8323 45.5507 25.9428 45.5507 26.0833C45.5507 26.6833 45.5507 28.2018 45.5507 29.015C45.5507 29.1531 45.6626 29.266 45.7993 29.266Z" fill="white"/>
<path d="M54.0201 20.9052C53.8711 20.0267 53.1731 19.3491 52.2981 19.2361C49.9744 18.9374 44.7927 18.4404 36.0248 18.4404H35.9776C27.2073 18.4404 22.0281 18.9374 19.7044 19.2386C18.8271 19.3516 18.1287 20.0267 17.9821 20.9078C17.321 24.8459 15.7603 35.2122 16.1356 42.21C16.6301 51.4418 21.9311 53.1963 26.2356 53.4999C27.421 53.5828 35.5054 53.5552 36 53.5527C36.4946 53.5527 44.579 53.5828 45.7644 53.4999C50.0714 53.1963 55.3725 51.4418 55.8642 42.21C56.2397 35.2122 54.6787 24.8434 54.0178 20.9052H54.0201ZM42.894 23.6336C42.894 23.4931 43.0083 23.3801 43.1475 23.3826C44.5765 23.4102 46.008 23.4454 47.4345 23.5206C48.5976 23.5859 49.7408 24.0954 50.541 24.9513C51.1947 25.6491 51.5849 26.6782 51.5849 27.6371C51.5849 28.5758 51.2096 29.6024 50.5386 30.265C49.7209 31.0682 48.5578 31.4598 47.4246 31.4547H45.8017C45.6651 31.4547 45.5532 31.5677 45.5532 31.7057V34.8257C45.5532 34.9637 45.4414 35.0767 45.3047 35.0767H43.1376C43.0009 35.0767 42.889 34.9637 42.889 34.8257C42.889 31.0958 42.889 27.366 42.894 23.6361V23.6336ZM32.0882 23.5784C32.0882 23.4428 32.1976 23.3299 32.3318 23.3274C33.055 23.3123 33.7757 23.2972 34.4989 23.2872C34.6381 23.2872 34.7524 23.3977 34.7524 23.5382C34.7524 25.7671 34.7524 27.996 34.7524 30.2248C34.7599 30.9201 34.8866 31.7459 35.3737 32.278C35.7241 32.662 36.2311 32.8779 36.7505 32.8804C37.265 32.8804 37.7918 32.6746 38.1174 32.2805C38.5672 31.7358 38.7636 30.9452 38.7313 30.2273C38.7313 28.0035 38.7313 25.7821 38.7313 23.5583C38.7313 23.4177 38.8456 23.3048 38.9848 23.3073C39.7079 23.3223 40.4311 23.3399 41.1544 23.3575C41.2886 23.36 41.3979 23.473 41.3979 23.6085C41.3929 25.8574 41.3929 28.1064 41.3929 30.3553C41.4128 31.6681 40.9083 33.0486 39.9441 33.8819C39.0593 34.6474 37.9658 35.0792 36.748 35.0792C35.5328 35.0792 34.4368 34.6374 33.5446 33.8844C32.5654 33.0586 32.0932 31.6631 32.0882 30.3553C32.0882 28.0989 32.0882 25.8399 32.0882 23.5834V23.5784ZM22.0032 25.3454C22.9749 24.2536 24.4163 23.4754 25.8826 23.4579C26.9538 23.4428 28.0771 23.6487 28.9295 24.359C29.8143 25.0944 30.3088 26.2089 30.5797 27.5216C30.6071 27.6596 30.5151 27.7952 30.3784 27.8178L28.4399 28.1616C28.3057 28.1842 28.174 28.0989 28.1492 27.9658C27.8982 26.633 26.9935 25.8901 25.8851 25.8675C25.1371 25.8524 24.3766 26.3118 23.9491 26.8891C23.4272 27.5919 23.2582 28.5933 23.2582 29.4643C23.2582 30.3177 23.4247 31.3041 23.9516 31.9818C24.389 32.5441 25.152 32.9356 25.8876 32.908C27.0035 32.8629 27.8758 32.0923 28.1317 30.772C28.1566 30.639 28.2908 30.5561 28.4226 30.5812L30.3561 30.9653C30.4952 30.9929 30.5847 31.1334 30.5499 31.2715C30.2219 32.6269 29.7745 33.4903 28.9245 34.1731C28.0721 34.8557 26.9538 35.0917 25.8901 35.0942C24.4661 35.0992 23.0147 34.5521 22.0132 33.5129C20.9992 32.4637 20.5866 30.895 20.5866 29.4668C20.5866 28.0085 21.0216 26.4574 22.0082 25.3504L22.0032 25.3454ZM30.6021 48.0708C30.6021 48.2089 30.4903 48.3218 30.3536 48.3218H21.6975C21.5608 48.3218 21.449 48.2089 21.449 48.0708V36.9892C21.449 36.8512 21.5608 36.7382 21.6975 36.7382H23.8497C23.9864 36.7382 24.0982 36.8512 24.0982 36.9892V45.8897C24.0982 46.0277 24.2101 46.1407 24.3468 46.1407H30.3536C30.4903 46.1407 30.6021 46.2536 30.6021 46.3917V48.0708ZM41.3258 48.3218H39.3551C39.2457 48.3218 39.1488 48.249 39.1165 48.1436C38.9325 47.5337 38.7462 46.9238 38.5623 46.3164C38.5299 46.211 38.433 46.1382 38.3237 46.1382H35.16C35.0506 46.1382 34.9537 46.211 34.9214 46.3164C34.7375 46.9263 34.5511 47.5362 34.3672 48.1436C34.3349 48.249 34.238 48.3218 34.1286 48.3218H32.1578C31.9889 48.3218 31.8696 48.1562 31.9217 47.9956C33.0774 44.3009 34.2355 40.6086 35.3911 36.9139C35.4234 36.8085 35.5204 36.7382 35.6272 36.7382H37.8515C37.9608 36.7382 38.0553 36.8085 38.0876 36.9139C39.2432 40.6086 40.4013 44.3009 41.557 47.9956C41.6067 48.1562 41.4874 48.3218 41.3209 48.3218H41.3258ZM50.7225 47.3882C49.9595 48.0633 48.8958 48.3244 47.8943 48.3218H43.1351C42.9984 48.3218 42.8865 48.2089 42.8865 48.0708V36.9892C42.8865 36.8512 42.9984 36.7382 43.1351 36.7382H47.5787C48.5305 36.7834 49.4724 36.9641 50.2006 37.6268C50.8517 38.2217 51.1326 39.188 51.1425 40.0439C51.1499 40.7668 50.807 41.5072 50.2826 41.9942C50.1608 42.1071 50.1931 42.3054 50.3348 42.3883C51.1996 42.9103 51.7737 43.8315 51.7439 44.8405C51.7166 45.7616 51.4531 46.7406 50.7225 47.3882Z" fill="white"/>
</svg>
