<svg width="72" height="72" viewBox="0 0 72 72" fill="none" xmlns="http://www.w3.org/2000/svg">
<rect width="72" height="72" rx="36" fill="white"/>
<g clip-path="url(#clip0_515_8)">
<path d="M16.9808 32.0255C15.8996 32.0261 14.8273 32.2183 13.8146 32.5931C13.7839 32.607 13.7584 32.6301 13.7416 32.6592C13.7248 32.6882 13.7176 32.7217 13.7209 32.755L13.8911 33.8905C13.8964 33.9154 13.9102 33.9375 13.9311 33.9526C13.9425 33.9581 13.9551 33.961 13.9679 33.961C13.9807 33.961 13.9933 33.9581 14.0048 33.9526C14.471 33.8191 14.9439 33.7091 15.4215 33.6232C16.5553 33.4302 17.1848 33.482 17.5019 33.7822C17.5943 33.8793 17.6607 33.9977 17.6949 34.1267C17.7291 34.2557 17.7301 34.3911 17.6977 34.5206L17.6692 34.7361C17.6692 34.7361 16.2948 34.9206 15.4015 35.0881C14.7309 35.1769 14.0846 35.396 13.4999 35.7328C12.5704 36.3399 12.3408 37.5267 12.5196 38.3728C12.6755 39.1135 13.3273 39.9992 15.5522 39.9992H15.7139C19.1149 39.9992 19.5599 39.4171 19.7101 38.1851L20.1775 34.3813C20.2488 33.706 20.138 33.2034 19.7976 32.826C19.316 32.2867 18.3956 32.0255 16.9808 32.0255ZM17.4824 36.2091C17.4824 36.2091 17.4144 36.851 17.4144 36.8594L17.2128 38.4801H17.1843C16.8683 38.5679 16.5407 38.6082 16.2126 38.5997C15.8454 38.6348 15.4789 38.5256 15.1923 38.2957C15.1003 38.1967 15.0295 38.0803 14.9841 37.9534C14.9388 37.8266 14.9198 37.692 14.9285 37.5578C14.9285 36.9107 15.3136 36.5046 16.1018 36.3573C16.5715 36.269 17.0442 36.1969 17.519 36.1413L17.4824 36.2095V36.2091ZM47.8002 32.0255H47.5506C45.7483 32.0255 44.5237 32.5479 43.9142 33.5695C43.4241 34.3841 43.1887 37.146 43.1859 37.1742C43.1328 37.6123 43.1793 38.0565 43.3219 38.4745C43.8296 39.826 45.5896 40.0105 46.6012 39.9992C48.4183 39.9992 49.6453 39.4797 50.2433 38.4834C50.4278 38.1766 50.6969 37.3192 50.9465 34.9945V34.9126C51.0053 34.4948 50.9753 34.0694 50.8585 33.6637C50.4668 32.3667 48.9792 32.0594 47.8002 32.0255ZM48.2167 37.067V37.1065C48.1948 37.4844 48.0497 37.845 47.8031 38.1342C47.5654 38.3539 47.2526 38.4766 46.9274 38.4778C46.6477 38.5114 46.3642 38.4609 46.1139 38.3328C45.9726 38.2436 45.8546 38.1227 45.7693 37.9799C45.6833 37.8366 45.6324 37.6755 45.6205 37.5093C45.6038 37.291 45.7992 35.9399 45.9043 35.2128L45.9518 34.8782C45.9909 34.474 46.1836 34.0996 46.4909 33.8307C46.734 33.6442 47.0334 33.5442 47.341 33.547C47.6025 33.5306 47.8631 33.5919 48.0893 33.723C48.2198 33.8184 48.3253 33.9435 48.3969 34.0877C48.4684 34.2319 48.504 34.391 48.5005 34.5517C48.5005 34.6938 48.4097 35.571 48.2167 37.067ZM42.9791 32.091H41.899C41.6088 32.0834 41.3215 32.1502 41.0651 32.2848C40.8084 32.4194 40.5897 32.6175 40.4309 32.8604L37.6925 36.267L37.7667 36.0651L38.2483 32.1992C38.2508 32.1864 38.25 32.1732 38.2461 32.1608C38.2421 32.1484 38.235 32.1371 38.2255 32.1281C38.217 32.1185 38.2066 32.1107 38.1949 32.1053C38.1831 32.1 38.1704 32.0972 38.1575 32.0971H35.9074C35.8765 32.0982 35.8469 32.1098 35.8237 32.13C35.8004 32.1501 35.7848 32.1775 35.7795 32.2077L34.8386 39.7385C34.8365 39.7627 34.8436 39.7869 34.8586 39.8062C34.8776 39.8204 34.9 39.8284 34.9237 39.8293H36.0999C36.3893 39.8338 36.675 39.7645 36.9295 39.6279C37.185 39.4907 37.4009 39.2913 37.557 39.0486L40.2322 35.5658L40.1447 35.7813L39.6569 39.7272C39.6549 39.7523 39.662 39.7773 39.6769 39.7978C39.6864 39.8077 39.6978 39.8156 39.7105 39.821C39.7231 39.8265 39.7368 39.8293 39.7506 39.8293H41.9983C42.0296 39.8279 42.0594 39.8158 42.0827 39.795C42.1059 39.7742 42.1211 39.7461 42.1257 39.7154L43.0609 32.1766C43.064 32.1651 43.064 32.153 43.061 32.1414C43.058 32.1299 43.0521 32.1193 43.0437 32.1107C43.0249 32.0971 43.0024 32.0901 42.9791 32.091ZM59.2115 32.0293L56.9186 32.3131C56.8854 32.3182 56.8547 32.3336 56.8308 32.357C56.8069 32.3804 56.791 32.4106 56.7855 32.4434L56.4593 35.0806L56.4427 35.1888H54.2515L54.6314 32.1145C54.6328 32.1023 54.6318 32.09 54.6285 32.0782C54.6252 32.0665 54.6194 32.0556 54.6114 32.0462C54.6023 32.0393 54.5918 32.0342 54.5806 32.0312C54.5694 32.0283 54.5577 32.0277 54.5463 32.0293L52.2534 32.3131C52.22 32.3179 52.1891 32.3331 52.1652 32.3566C52.1412 32.3801 52.1255 32.4105 52.1203 32.4434L51.2303 39.722C51.2284 39.7412 51.2324 39.7605 51.2419 39.7774C51.2515 39.7942 51.266 39.8077 51.2835 39.8161C51.2953 39.8214 51.3081 39.8242 51.3211 39.8241H53.5712C53.6035 39.8234 53.6345 39.8112 53.6584 39.7898C53.6824 39.7684 53.6979 39.7391 53.702 39.7074L54.0647 36.795V36.7724H56.2582L55.8926 39.722C55.8906 39.7412 55.8947 39.7606 55.9042 39.7774C55.9137 39.7943 55.9283 39.8078 55.9459 39.8161C55.9577 39.8214 55.9705 39.8241 55.9834 39.8241H56.5501C57.5875 39.8241 58.35 39.699 58.5117 38.4985L59.308 32.1145C59.3109 32.1026 59.3108 32.0901 59.3075 32.0782C59.3047 32.0664 59.2989 32.0554 59.2909 32.0462C59.2803 32.0367 59.2674 32.0302 59.2535 32.0272C59.2395 32.0242 59.225 32.0249 59.2115 32.0293ZM34.8638 33.7295L35.0564 32.1681C35.0577 32.1555 35.0563 32.1427 35.0525 32.1306C35.0487 32.1184 35.0424 32.1072 35.034 32.0975C35.0251 32.0875 35.0142 32.0795 35.0019 32.0741C34.9896 32.0686 34.9762 32.0659 34.9627 32.066H26.4348C26.2788 32.0742 26.1323 32.1424 26.0264 32.2561L23.6427 35.1832H23.3028L23.6855 32.1117C23.688 32.0999 23.6875 32.0877 23.684 32.0762C23.6805 32.0647 23.6742 32.0542 23.6656 32.0458C23.6568 32.038 23.6465 32.0322 23.6352 32.0288C23.6239 32.0255 23.6121 32.0247 23.6004 32.0265L21.3075 32.3102C21.2742 32.3151 21.2433 32.3303 21.2193 32.3538C21.1954 32.3772 21.1796 32.4077 21.1744 32.4406L20.2702 39.7102C20.2676 39.7227 20.268 39.7357 20.2715 39.7479C20.275 39.7602 20.2814 39.7715 20.2901 39.7808C20.2991 39.7907 20.31 39.7985 20.3222 39.804C20.3344 39.8094 20.3476 39.8123 20.361 39.8124H22.6282C22.6593 39.8105 22.6887 39.7982 22.7119 39.7776C22.735 39.757 22.7504 39.7293 22.7556 39.699L23.1217 36.7639H23.473L25.1084 39.7018C25.1282 39.7332 25.1552 39.7596 25.1871 39.7788C25.2191 39.798 25.2551 39.8095 25.2924 39.8124H27.7327C27.7726 39.8124 27.8121 39.7926 27.7783 39.7244L25.5449 35.995L27.3985 33.8462H30.0769L29.3481 39.7107C29.3455 39.7232 29.346 39.7361 29.3495 39.7484C29.3529 39.7607 29.3593 39.772 29.3681 39.7813C29.3771 39.7912 29.3881 39.7991 29.4004 39.8046C29.4127 39.81 29.426 39.8128 29.4394 39.8128H31.6895C31.7209 39.812 31.751 39.8001 31.7743 39.7793C31.7977 39.7586 31.8128 39.7302 31.8169 39.6994L32.5339 33.8462H34.7336C34.7655 33.8448 34.796 33.8325 34.8198 33.8113C34.8436 33.7901 34.8591 33.7609 34.8638 33.7295ZM64.9559 35.9757L62.8669 32.2853C62.8307 32.2282 62.7811 32.1806 62.7224 32.1465C62.6636 32.1124 62.5974 32.0929 62.5294 32.0895H60.6643C60.5341 32.0895 60.4689 32.1747 60.5312 32.2797L62.6287 35.97L59.5961 39.6604C59.5138 39.7507 59.5533 39.8274 59.6869 39.8274H61.8381C61.9855 39.8208 62.1253 39.7568 62.2261 39.6486L64.9159 36.379C64.9629 36.3236 64.9919 36.2554 64.9991 36.1834C65.0062 36.1114 64.9911 36.039 64.9559 35.9757ZM12.3171 32.0895H10.1658C10.0166 32.0955 9.87591 32.1598 9.77456 32.2684L7.08754 35.5385C7.03856 35.5945 7.00844 35.6643 7.00137 35.7381C6.99429 35.8119 7.01062 35.8861 7.04808 35.9502L9.13656 39.6401C9.17174 39.6981 9.22109 39.7465 9.28007 39.7807C9.33905 39.8149 9.40577 39.8339 9.4741 39.8359H11.3358C11.4689 39.8359 11.5341 39.7512 11.4689 39.6458L9.37474 35.9559L12.4079 32.2655C12.4868 32.1634 12.4473 32.0895 12.3171 32.0895Z" fill="#F1361D"/>
</g>
<defs>
<clipPath id="clip0_515_8">
<rect width="58" height="8" fill="white" transform="translate(7 32)"/>
</clipPath>
</defs>
</svg>
