<svg width="44" height="44" viewBox="0 0 44 44" fill="none" xmlns="http://www.w3.org/2000/svg">
<path d="M43.5192 0.593107C43.5014 0.506738 43.4593 0.427242 43.3979 0.363937C43.3365 0.300633 43.2583 0.256144 43.1725 0.235685C37.4528 -1.16275 24.237 3.82065 17.0768 10.9779C15.7997 12.2446 14.6355 13.6203 13.5973 15.0892C11.3893 14.8939 9.18131 15.057 7.29947 15.8773C1.9899 18.2142 0.444002 24.3119 0.013338 26.9349C-0.0110901 27.0785 -0.00187578 27.2258 0.0402558 27.3652C0.0823874 27.5046 0.156288 27.6323 0.256144 27.7383C0.356 27.8443 0.47909 27.9257 0.615731 27.9761C0.752372 28.0265 0.898839 28.0445 1.04361 28.0287L9.56998 27.0882C9.57605 27.7311 9.61484 28.3732 9.68619 29.0121C9.7291 29.4557 9.92604 29.8704 10.2428 30.1839L13.5446 33.4779C13.8585 33.7942 14.2729 33.991 14.7165 34.0345C15.3518 34.1055 15.9903 34.1443 16.6295 34.1507L15.694 42.6664C15.6784 42.8111 15.6965 42.9575 15.747 43.094C15.7974 43.2305 15.8788 43.3535 15.9848 43.4534C16.0908 43.5532 16.2184 43.6271 16.3577 43.6693C16.497 43.7115 16.6442 43.7208 16.7878 43.6966C19.4059 43.2767 25.5143 41.7308 27.8376 36.4212C28.6579 34.5394 28.8258 32.3421 28.6364 30.1449C30.1089 29.1066 31.4881 27.942 32.7585 26.6644C39.9411 19.5179 44.8962 6.59701 43.5192 0.593107ZM25.5924 18.139C24.9366 17.4836 24.4898 16.6483 24.3087 15.739C24.1276 14.8296 24.2202 13.8869 24.5749 13.0302C24.9296 12.1735 25.5304 11.4413 26.3014 10.9261C27.0723 10.4109 27.9787 10.1359 28.9059 10.1359C29.8331 10.1359 30.7395 10.4109 31.5105 10.9261C32.2814 11.4413 32.8822 12.1735 33.2369 13.0302C33.5916 13.8869 33.6842 14.8296 33.5031 15.739C33.322 16.6483 32.8753 17.4836 32.2194 18.139C31.7845 18.5745 31.268 18.9201 30.6994 19.1558C30.1309 19.3915 29.5214 19.5129 28.9059 19.5129C28.2904 19.5129 27.681 19.3915 27.1124 19.1558C26.5439 18.9201 26.0273 18.5745 25.5924 18.139Z" fill="#8EEB21"/>
</svg>
