<svg width="45" height="41" viewBox="0 0 45 41" fill="none" xmlns="http://www.w3.org/2000/svg">
<path fill-rule="evenodd" clip-rule="evenodd" d="M0.501455 1.12184C0.148213 0.610607 -0.0870879 0.131016 0.0306347 0.0154351C0.148357 -0.100146 2.72184 0.449606 4.76215 1.12184C11.9478 3.4898 17.0605 7.76355 19.9329 13.804C21.1361 16.3341 21.5667 18.0165 21.7145 20.7641C21.783 22.0351 22.0347 23.9589 22.2741 25.0392C22.5135 26.1196 22.8398 27.7834 22.9989 28.7367C23.1583 29.6899 23.316 30.3658 23.3494 30.2387C23.926 28.0503 24.6616 24.1734 24.8542 22.3089C25.3419 17.5864 27.0061 14.1712 30.5163 10.688C33.0418 8.18182 34.9281 6.97785 38.456 5.6209C40.7065 4.75501 44.7233 3.78282 44.9855 4.04049C45.0583 4.11189 44.8497 4.76541 44.5218 5.49311C44.1941 6.22057 43.5935 7.9223 43.1872 9.27463C41.7515 14.0528 40.444 16.5768 38.1374 19.0224C35.6058 21.7067 32.7553 23.4195 28.3964 24.8761L26.1612 25.623L25.636 27.4333C25.0067 29.6028 24.7487 31.559 24.631 34.7861C24.6054 35.4875 24.631 36.5726 24.631 36.5726C31.2225 37.2207 37.9317 38.197 36.6369 39.1183C35.9307 39.7627 34.1811 40.2406 31.1048 40.687C27.2933 41.24 17.8898 40.9977 14.1908 40.4459C11.0999 39.9846 9.92869 39.6581 9.43104 39.1183C8.35857 37.9546 16.2739 36.9896 21.5707 36.5726C21.5707 36.5726 21.708 36.0653 21.8061 34.9098C22.0415 32.1367 20.9836 24.7446 20.1429 23.7502C20.004 23.5859 19.5532 23.3812 19.1415 23.2957C17.7434 23.005 14.1616 21.5549 12.6008 20.6476C10.654 19.5158 7.74479 16.8673 6.36764 14.9728C4.94482 13.0153 3.64936 10.2239 2.63027 6.91915C1.72747 3.99196 0.854698 1.63308 0.501455 1.12184Z" fill="#8EEB21"/>
</svg>
